HIERARCHY
ROOT Hips
{
    OFFSET 0.000000 0.000000 0.000000
    CHANNELS 6 Xposition Yposition Zposition Zrotation Xrotation Yrotation
    JOINT Spine
    {
        OFFSET -0.000000 14.517291 0.000000
        CHANNELS 3 Zrotation Xrotation Yrotation
        JOINT Spine1
        {
            OFFSET -0.000000 37.558300 0.000000
            CHANNELS 3 Zrotation Xrotation Yrotation
            JOINT Neck
            {
                OFFSET -0.000000 37.404057 3.400369
                CHANNELS 3 Zrotation Xrotation Yrotation
                JOINT Head
                {
                    OFFSET -0.000000 24.785618 -3.540803
                    CHANNELS 3 Zrotation Xrotation Yrotation
                    End Site
                    {
                        OFFSET -0.000000 35.408028 0.000000
                    }
                }
            }
            JOINT LeftShoulder
            {
                OFFSET 6.992933 33.973492 -0.192664
                CHANNELS 3 Zrotation Xrotation Yrotation
                JOINT LeftArm
                {
                    OFFSET 21.527611 0.000000 0.000000
                    CHANNELS 3 Zrotation Xrotation Yrotation
                    JOINT LeftForeArm
                    {
                        OFFSET 56.353916 0.000000 0.000000
                        CHANNELS 3 Zrotation Xrotation Yrotation
                        JOINT LeftHand
                        {
                            OFFSET 47.774071 0.000000 0.000000
                            CHANNELS 3 Zrotation Xrotation Yrotation
                            End Site
                            {
                                OFFSET 26.556021 0.000000 0.000000
                            }
                        }
                    }
                }
            }
            JOINT RightShoulder
            {
                OFFSET -7.065357 33.973492 -0.192664
                CHANNELS 3 Zrotation Xrotation Yrotation
                JOINT RightArm
                {
                    OFFSET -21.527611 0.000000 0.000000
                    CHANNELS 3 Zrotation Xrotation Yrotation
                    JOINT RightForeArm
                    {
                        OFFSET -56.353916 0.000000 0.000000
                        CHANNELS 3 Zrotation Xrotation Yrotation
                        JOINT RightHand
                        {
                            OFFSET -47.774071 0.000000 0.000000
                            CHANNELS 3 Zrotation Xrotation Yrotation
                            End Site
                            {
                                OFFSET -26.556021 0.000000 0.000000
                            }
                        }
                    }
                }
            }
        }
    }
    JOINT LeftUpLeg
    {
        OFFSET 17.704014 0.000000 0.000000
        CHANNELS 3 Zrotation Xrotation Yrotation
        JOINT LeftLeg
        {
            OFFSET -0.000000 -81.181816 0.000000
            CHANNELS 3 Zrotation Xrotation Yrotation
            JOINT LeftFoot
            {
                OFFSET -0.000000 -62.821102 0.000000
                CHANNELS 3 Zrotation Xrotation Yrotation
                JOINT LeftToeBase
                {
                    OFFSET -0.000000 -11.507608 26.556021
                    CHANNELS 3 Zrotation Xrotation Yrotation
                    End Site
                    {
                        OFFSET -0.000000 0.000000 7.081605
                    }
                }
            }
        }
    }
    JOINT RightUpLeg
    {
        OFFSET -17.704014 0.000000 0.000000
        CHANNELS 3 Zrotation Xrotation Yrotation
        JOINT RightLeg
        {
            OFFSET -0.000000 -81.181816 0.000000
            CHANNELS 3 Zrotation Xrotation Yrotation
            JOINT RightFoot
            {
                OFFSET -0.000000 -62.821102 0.000000
                CHANNELS 3 Zrotation Xrotation Yrotation
                JOINT RightToeBase
                {
                    OFFSET -0.000000 -11.507608 26.556021
                    CHANNELS 3 Zrotation Xrotation Yrotation
                    End Site
                    {
                        OFFSET -0.000000 0.000000 7.081605
                    }
                }
            }
        }
    }
}
MOTION
Frames:    8
Frame Time:    0.008333
-21.799585    156.836945    -54.649235    -8.036608    20.263851    31.092062    5.443262    8.916550    -0.813378    -1.867486    -1.830757    -0.156161    5.111862    -1.491641    -10.397529    7.318126    -9.557549    -10.022241    3.573099    7.999631    -16.481686    -31.584333    19.437651    -54.922527    3.638786    -37.929592    -113.041756    -10.222477    -32.468254    -13.130364    0.058413    8.869310    -1.789805    25.766605    14.094040    46.655201    -7.260398    7.999374    43.648354    -19.637964    4.282637    37.038883    16.856030    -20.134251    3.854566    -10.194357    24.016634    -14.303041    -9.910771    -20.201483    44.514778    0.000000    0.000000    0.000000    -22.161303    -48.681740    -14.590066    11.952515    28.662821    -10.125529    1.136509    4.847505    -14.940123    0.000000    0.000000    0.000000    
-21.646265    156.770325    -54.853977    -7.945729    19.923651    30.965816    5.223475    5.645302    0.104068    -2.862278    4.170734    0.230972    7.378119    -3.531264    -10.380830    6.205750    -10.672801    -10.694864    7.006250    5.926269    -16.843494    -31.327051    19.343258    -57.847401    5.017347    -40.154278    -111.126526    -10.666300    -33.285286    -13.300144    0.567801    6.497837    -3.186555    24.806084    14.802032    47.285515    -7.951190    6.484405    43.681145    -18.906321    3.319551    36.886391    16.961721    -19.975929    3.876971    -10.350911    24.414268    -14.292519    -9.685784    -20.435236    44.477627    0.000000    0.000000    0.000000    -21.922173    -48.437916    -14.347186    11.891733    28.644941    -10.116148    1.219932    4.964126    -14.955089    0.000000    0.000000    0.000000    
-21.416090    156.682724    -55.074562    -7.832567    19.551022    30.907295    5.092966    8.735897    -0.757590    -1.742820    -1.742278    -0.145932    4.957313    -1.455484    -10.467500    7.545029    -9.553589    -10.018414    3.535571    7.921923    -16.451239    -31.646336    19.456257    -54.784000    3.582553    -37.823254    -113.096161    -10.270393    -32.419254    -13.102356    0.082894    8.888319    -1.844679    25.864273    14.167129    46.580750    -7.215456    8.029095    43.763584    -19.670061    4.316508    36.911110    16.995375    -19.809988    3.848765    -10.460662    24.850277    -14.367599    -9.415981    -20.731646    44.455635    0.000000    0.000000    0.000000    -21.829309    -48.106567    -14.241504    11.894669    28.643179    -10.144282    1.288635    5.018237    -14.933547    0.000000    0.000000    0.000000    
-21.201456    156.601196    -55.279072    -7.726312    19.173813    30.855936    5.019113    5.532439    0.034200    -2.896452    4.127964    0.202645    7.327716    -3.475784    -10.392982    6.281196    -10.593119    -10.681641    6.928124    5.951930    -16.758135    -31.300919    19.383963    -57.644989    4.969323    -40.080597    -111.209061    -10.748859    -33.244228    -13.323809    0.618212    6.547958    -3.155980    24.930994    14.953601    47.179806    -7.938205    6.507030    43.780872    -19.004635    3.331664    36.777245    17.040915    -19.635092    3.830342    -10.570057    25.268085    -14.446236    -9.141736    -20.989002    44.439125    0.000000    0.000000    0.000000    -21.700888    -47.773693    -14.142679    11.850329    28.647886    -10.127250    1.372486    5.063111    -14.915037    0.000000    0.000000    0.000000    
-20.977610    156.519180    -55.481583    -7.610386    18.780371    30.798664    4.821344    8.562509    -0.769112    -1.692572    -1.691630    -0.157576    4.905735    -1.318742    -10.516483    7.630049    -9.611954    -10.032524    3.496011    7.990043    -16.426222    -31.630219    19.376801    -54.621712    3.428008    -37.645588    -113.225090    -10.207807    -32.426811    -13.053604    0.104535    8.976871    -1.862177    25.990795    14.276087    46.477688    -7.194505    7.989212    43.871124    -19.671207    4.305629    36.754028    17.082115    -19.431866    3.806333    -10.675909    25.675385    -14.524704    -8.883432    -21.264252    44.422508    0.000000    0.000000    0.000000    -21.568758    -47.419262    -14.020805    11.818896    28.645971    -10.105194    1.447351    5.111240    -14.919213    0.000000    0.000000    0.000000    
-20.744417    156.442444    -55.693085    -7.493921    18.411505    30.746502    4.760104    5.369278    0.007318    -2.837377    4.181370    0.186579    7.087249    -3.420030    -10.488005    6.543221    -10.557984    -10.675467    6.794150    5.921508    -16.686058    -31.270769    19.389364    -57.461033    4.876786    -39.937519    -111.365189    -10.187934    -33.271049    -12.906348    0.552973    6.661564    -3.227566    25.088509    15.127079    47.163235    -7.990993    6.400382    43.937271    -18.918964    3.318828    36.609604    17.102505    -19.250557    3.757142    -10.801831    26.085371    -14.541172    -8.604584    -21.525614    44.391823    0.000000    0.000000    0.000000    -21.475903    -47.079845    -13.931232    11.791925    28.638735    -10.080729    1.518808    5.167066    -14.912795    0.000000    0.000000    0.000000    
-20.521307    156.358322    -55.890720    -7.393324    18.004383    30.698093    4.537264    8.364902    -0.762579    -1.659375    -1.602189    -0.163773    4.966973    -1.280747    -10.563354    7.580391    -9.590159    -10.102061    3.513372    7.957348    -16.410912    -31.655302    19.406605    -54.491524    3.416534    -37.573997    -113.280060    -10.013817    -32.390770    -12.904137    0.140686    8.941049    -1.902739    26.113373    14.549509    46.296516    -7.270372    7.895436    44.013962    -19.646883    4.281276    36.646744    17.164627    -19.028551    3.695341    -10.960415    26.496553    -14.565802    -8.256893    -21.816315    44.391434    0.000000    0.000000    0.000000    -21.336960    -46.710262    -13.806455    11.782401    28.621244    -10.029778    1.592290    5.210909    -14.960462    0.000000    0.000000    0.000000    
-20.294762    156.283524    -56.078392    -7.289859    17.628044    30.656187    4.393384    8.248931    -0.762330    -1.614024    -1.574990    -0.167714    4.808091    -1.291552    -10.615121    7.734286    -9.473907    -10.104443    3.448323    7.939750    -16.359915    -31.642591    19.384132    -54.406902    3.353197    -37.433216    -113.340904    -9.832777    -32.344593    -12.771596    0.103903    9.004438    -1.946418    26.205091    14.623104    46.278610    -7.228060    7.816330    44.055908    -19.488764    4.206563    36.830490    17.209249    -18.817520    3.649247    -11.072318    26.835651    -14.634590    -7.994991    -22.037140    44.364559    0.000000    0.000000    0.000000    -21.227236    -46.358448    -13.703724    11.765592    28.606108    -9.993166    1.674952    5.253877    -14.983206    0.000000    0.000000    0.000000    
